Coordinates
version=1
nRows=17
nColumns=40
inDegrees=yes

Units are S.I. units (second, meters, Newtons, ...)
Angles are in degrees.

endheader
time	pelvis_tilt	pelvis_list	pelvis_rotation	pelvis_tx	pelvis_ty	pelvis_tz	hip_flexion_r	hip_adduction_r	hip_rotation_r	knee_angle_r	knee_angle_r_beta	ankle_angle_r	subtalar_angle_r	mtp_angle_r	hip_flexion_l	hip_adduction_l	hip_rotation_l	knee_angle_l	knee_angle_l_beta	ankle_angle_l	subtalar_angle_l	mtp_angle_l	lumbar_extension	lumbar_bending	lumbar_rotation	arm_flex_r	arm_add_r	arm_rot_r	elbow_flex_r	pro_sup_r	wrist_flex_r	wrist_dev_r	arm_flex_l	arm_add_l	arm_rot_l	elbow_flex_l	pro_sup_l	wrist_flex_l	wrist_dev_l
     39.89750000	     -4.32181836	     -5.11867390	     -0.71627547	      0.88048397	      0.92084209	      0.48896833	     21.40803719	      2.03090136	    -11.36347376	     22.88171174	     22.88171174	      6.38290384	     -6.51305182	     -2.81253934	      9.72107178	    -10.61571099	     -4.12733718	     45.76580362	     45.76580362	     12.18301690	    -18.14543791	     -1.76061996	     -9.54702279	      8.44887798	      0.62783775	      9.13169549	    -14.13911897	    -10.26903534	     46.63495013	     44.83574404	      0.00000000	      0.00000000	      3.25080700	    -10.74163152	     -3.43267142	     62.58595931	     46.90773989	      0.00000000	      0.00000000
     39.91057143	     -4.14974908	     -5.33666578	     -0.42323164	      0.88118021	      0.92159621	      0.49168241	     20.58010850	      2.38321001	    -11.76313891	     22.67174805	     22.67174805	      6.83789689	     -6.34900478	     -2.89354399	     11.76384851	    -11.23608120	     -3.29679951	     49.82930036	     49.82930036	     10.43835387	    -18.59421312	     -0.99942522	     -9.68986864	      8.52679190	      0.80475085	      9.53513183	    -14.47581954	    -10.30046526	     47.12816719	     44.82852060	      0.00000000	      0.00000000	      2.45603294	    -10.65676921	     -3.40602403	     61.75711117	     46.88998616	      0.00000000	      0.00000000
     39.92364286	     -4.16418171	     -5.35208645	     -0.16677050	      0.88143961	      0.92212246	      0.49407770	     20.04375229	      2.45499868	    -12.22582832	     22.59953468	     22.59953468	      7.38728930	     -5.81816064	     -2.83045601	     14.26466915	    -11.26039350	     -2.01506624	     54.10578000	     54.10578000	     11.09898377	    -18.63506147	      6.47617889	     -9.60550045	      8.44566220	      1.12299707	      9.06035311	    -15.14495450	     -9.52644076	     49.79243652	     44.74440827	      0.00000000	      0.00000000	      2.68002521	    -10.11879112	     -4.00381964	     58.13738013	     46.90048177	      0.00000000	      0.00000000
     39.93671429	     -4.14347167	     -5.47561073	      0.03872490	      0.88147707	      0.92253339	      0.49662932	     19.46419858	      2.70585939	    -12.54466444	     22.47011593	     22.47011593	      7.86968374	     -5.51478833	     -2.73820348	     16.54024055	    -11.52544087	     -1.08482314	     57.65483396	     57.65483396	     10.63593710	    -18.72644664	     10.17105313	     -9.65479249	      8.39708047	      1.31082952	      9.09017207	    -15.58603241	     -9.28805652	     51.63592311	     44.72032162	      0.00000000	      0.00000000	      2.14543108	    -10.01992928	     -4.04092930	     56.54302240	     46.88477311	      0.00000000	      0.00000000
     39.94978571	     -4.11029512	     -5.59812718	      0.24140927	      0.88131743	      0.92292210	      0.49916044	     18.89501159	      2.96814550	    -12.82960564	     22.35690768	     22.35690768	      8.33092056	     -5.28547057	     -2.71385517	     18.67711852	    -11.77544483	     -0.26871779	     60.56918855	     60.56918855	      9.91806085	    -18.87494073	     12.38904202	     -9.72225553	      8.33415502	      1.32576332	      9.35906457	    -15.85575006	     -9.06587216	     53.36233978	     44.68892534	      0.00000000	      0.00000000	      1.55156217	     -9.93567423	     -4.24751460	     54.69240849	     46.87667803	      0.00000000	      0.00000000
     39.96285714	     -4.13130351	     -5.76481192	      0.40301410	      0.88090336	      0.92322517	      0.50171706	     18.35107181	      3.32244355	    -13.01482926	     22.12203331	     22.12203331	      8.67991102	     -5.15963372	     -2.74392167	     20.74138393	    -12.11927491	      0.36150859	     62.83799688	     62.83799688	      8.96977071	    -19.00536344	     12.81859066	     -9.75639864	      8.26103647	      1.47508674	      9.95123026	    -16.10901094	     -9.11583189	     54.11443361	     44.67398030	      0.00000000	      0.00000000	      0.68254160	     -9.95383638	     -4.27547653	     53.88067326	     46.86196448	      0.00000000	      0.00000000
     39.97592857	     -4.19518031	     -5.90616328	      0.62001748	      0.88029440	      0.92350088	      0.50411695	     17.85501309	      3.64490637	    -13.20039979	     21.86087609	     21.86087609	      9.02028367	     -5.07773670	     -2.71941844	     22.80815935	    -12.37890148	      0.97590825	     64.56146602	     64.56146602	      8.50194081	    -19.10147446	     13.56919432	     -9.75102797	      8.17990543	      1.23845417	     10.61695530	    -16.11619547	     -9.04707750	     55.55419162	     44.63150224	      0.00000000	      0.00000000	     -0.26676772	    -10.02301843	     -4.36538954	     52.53744798	     46.84511704	      0.00000000	      0.00000000
     39.98900000	     -4.15441207	     -5.87670366	      0.78999654	      0.87958031	      0.92401780	      0.50626178	     17.28648292	      3.78487857	    -13.24828090	     21.68102558	     21.68102558	      9.50887469	     -4.99018825	     -2.39853555	     24.67239395	    -12.34727608	      1.47912242	     65.76928085	     65.76928085	      9.30535816	    -19.14307921	     17.04196830	     -9.95017040	      7.94615978	      1.73424752	      9.85274032	    -16.88598690	     -8.20833914	     59.99326815	     44.49261376	      0.00000000	      0.00000000	     -0.03117721	     -9.52133040	     -5.26003604	     49.18305846	     46.88801364	      0.00000000	      0.00000000
     40.00207143	     -4.18523760	     -5.96721627	      1.02093875	      0.87872253	      0.92444028	      0.50837396	     16.72378587	      4.07036038	    -13.34049821	     21.31738152	     21.31738152	      9.80722714	     -5.01198572	     -2.33754319	     26.44296880	    -12.56415716	      1.79226750	     66.17427107	     66.17427107	      9.29106682	    -19.22812151	     17.23374878	    -10.02277200	      7.78777014	      1.49443513	     10.76833233	    -16.76571796	     -8.35033280	     61.25862492	     44.46785386	      0.00000000	      0.00000000	     -1.07065588	     -9.62795146	     -5.22019273	     48.15716818	     46.86257878	      0.00000000	      0.00000000
     40.01514286	     -4.14952625	     -5.94989892	      1.26701060	      0.87780395	      0.92500949	      0.51020546	     16.10541203	      4.24885410	    -13.32031332	     20.98033363	     20.98033363	     10.16980495	     -5.16681827	     -2.08527731	     28.01991831	    -12.60910008	      1.98556826	     65.99404974	     65.99404974	      9.93821887	    -19.28824457	     18.73532972	    -10.22246924	      7.57783971	      1.75018908	     10.64476121	    -17.13757171	     -8.21343739	     64.93025283	     44.39767925	      0.00000000	      0.00000000	     -1.23466645	     -9.40237161	     -5.57434094	     45.55503860	     46.86181237	      0.00000000	      0.00000000
     40.02821429	     -4.09620338	     -5.90646796	      1.52794031	      0.87681970	      0.92547009	      0.51193279	     15.58201609	      4.34640212	    -13.40582489	     20.87003131	     20.87003131	     10.59459102	     -5.27620528	     -2.17068225	     29.36611294	    -12.67035852	      1.99997300	     65.10983372	     65.10983372	     10.28808499	    -19.32351707	     18.66880528	    -10.38542937	      7.20331951	      2.21150765	     11.32753362	    -17.25097212	     -8.29404542	     65.33695925	     44.39201810	      0.00000000	      0.00000000	     -1.94659817	     -9.38050897	     -5.55959279	     45.19371611	     46.84781030	      0.00000000	      0.00000000
     40.04128571	     -4.10179306	     -5.86938329	      1.84200072	      0.87579665	      0.92613225	      0.51322494	     14.80365969	      4.53033815	    -13.34629311	     20.09233271	     20.09233271	     10.72193252	     -5.41672655	     -1.93031020	     30.62215514	    -12.62439782	      1.99832924	     63.61854383	     63.61854383	     10.85027342	    -19.39896735	     19.24248022	    -10.52691000	      7.08105262	      0.99374771	     12.80826921	    -16.59950653	     -8.35406215	     68.39189312	     44.31382301	      0.00000000	      0.00000000	     -3.22493753	     -9.49375032	     -5.45457701	     43.11955006	     46.80157981	      0.00000000	      0.00000000
     40.05435714	     -4.17632737	     -5.84517308	      2.13976564	      0.87464997	      0.92636369	      0.51439401	     14.42310386	      4.61393595	    -13.45690221	     19.95547356	     19.95547356	     11.06721836	     -5.55652216	     -1.99197543	     31.77922869	    -12.54063692	      1.96216961	     61.61210288	     61.61210288	     11.32044329	    -19.40749104	     19.31266875	    -10.50548389	      6.82590558	      1.39676615	     13.64535573	    -16.83297441	     -8.44816102	     69.05584127	     44.30175045	      0.00000000	      0.00000000	     -3.92361605	     -9.36675163	     -5.42583503	     42.65910290	     46.78491806	      0.00000000	      0.00000000
     40.06742857	     -4.12849154	     -5.60430242	      2.46182844	      0.87359402	      0.92706687	      0.51508676	     13.63733698	      4.52707085	    -13.38111051	     19.30840858	     19.30840858	     11.28244667	     -5.70564420	     -1.91102821	     32.52204525	    -12.09410687	      1.84548507	     59.04359509	     59.04359509	     12.02730419	    -19.41454300	     20.40056870	    -10.77262641	      6.54104615	      1.58463669	     13.37987298	    -17.27619467	     -8.37229057	     74.69025705	     44.18823987	      0.00000000	      0.00000000	     -3.42337573	     -8.89300013	     -5.47733470	     38.39746128	     46.74923107	      0.00000000	      0.00000000
     40.08050000	     -4.23080881	     -5.39873433	      2.77053898	      0.87242777	      0.92734443	      0.51559988	     13.16514524	      4.40527390	    -13.43098478	     18.94793848	     18.94793848	     11.54230392	     -5.78538334	     -1.90468763	     33.23683135	    -11.54380621	      1.88046549	     56.06277876	     56.06277876	     12.34510244	    -19.38829986	     20.42432134	    -10.75867132	      6.17360141	      1.48748238	     14.69668887	    -17.10082138	     -8.62705452	     75.93348089	     44.17115660	      0.00000000	      0.00000000	     -4.32132030	     -8.82005107	     -5.36210087	     37.62741655	     46.71559926	      0.00000000	      0.00000000
     40.09357143	     -4.25134250	     -5.18962979	      3.10261999	      0.87132623	      0.92768902	      0.51581854	     12.59683017	      4.25341961	    -13.54455120	     18.59505555	     18.59505555	     11.82301789	     -5.79291471	     -1.94072904	     33.65669536	    -10.87387510	      2.03657884	     52.71955919	     52.71955919	     12.46727703	    -19.30009113	     20.25190770	    -10.83615263	      5.86836912	      1.12902325	     16.07435583	    -16.69707880	     -8.73283676	     77.81476685	     44.13216899	      0.00000000	      0.00000000	     -5.17431235	     -8.68588427	     -5.17406725	     36.45994292	     46.67050893	      0.00000000	      0.00000000
     40.10664286	     -4.39586128	     -5.05501381	      3.44102950	      0.87016628	      0.92769618	      0.51572830	     12.18917812	      4.10684190	    -13.87968872	     18.28740365	     18.28740365	     12.06911245	     -5.51312352	     -2.16541889	     34.04231514	    -10.15284158	      2.40529351	     49.10046994	     49.10046994	     11.96147786	    -19.18120742	     18.45409862	    -10.78617365	      5.73992129	      1.41025971	     16.75971167	    -16.99420583	     -8.78323189	     80.84447650	     44.09747642	      0.00000000	      0.00000000	     -5.16695481	     -8.30309638	     -4.72687261	     33.97386460	     46.58608063	      0.00000000	      0.00000000
